#!OML:ASF E:\pregnant2\Project 1\Capture day 1\Session 1\pregnant2.ASF
:FULLY-SPECIFIED
:DEGREES
616
root 2.87952 16.899 22.3937 -148.366 26.8965 -180.318
lowerback -17.7337 -1.15559 -1.98838
upperback -14.9597 1.41462 0.315896
thorax -6.30545 2.08501 1.48783
lowerneck -11.2326 -6.90683 -8.50502
upperneck 35.1291 -7.34372 5.45771
head 14.5488 -2.60027 2.82514
rclavicle -6.02255e-015 -1.51201e-014
rhumerus -51.8374 14.2746 -86.0597
rradius 45.6188
rwrist 4.67066
rhand -13.7349 -14.8303
rfingers 7.12502
rthumb 12.3847 -44.4435
lclavicle -6.02255e-015 -1.51201e-014
lhumerus -63.3747 -27.129 110.512
lradius 56.8137
lwrist 16.7673
lhand 16.9615 33.1939
lfingers 7.12502
lthumb 41.6947 57.8855
rfemur -53.1645 -4.33009 35.498
rtibia 29.9835
rfoot -35.8898 -41.6358
rtoes 36.4174
lfemur -34.9645 -5.66303 -23.2228
ltibia 32.1661
lfoot -22.5054 10.3436
ltoes -21.8899
617
root 2.83825 16.8929 22.4309 -148.443 27.0605 -180.349
lowerback -17.5197 -0.986383 -2.00595
upperback -14.9342 1.60941 0.107634
thorax -6.38879 2.16361 1.29233
lowerneck -11.2083 -7.25182 -8.82711
upperneck 34.7762 -7.9716 5.84472
head 14.4806 -2.88766 2.9216
rclavicle -2.58948e-014 -1.71949e-014
rhumerus -51.845 14.4109 -86.2518
rradius 46.3958
rwrist 4.47599
rhand -13.7725 -14.6535
rfingers 7.12502
rthumb 12.3484 -44.2688
lclavicle -2.58948e-014 -1.71949e-014
lhumerus -63.3112 -27.6509 110.522
lradius 56.7749
lwrist 16.868
lhand 16.3531 33.0794
lfingers 7.12502
lthumb 41.1238 57.9564
rfemur -53.2018 -3.9599 35.1307
rtibia 29.8394
rfoot -35.9832 -41.8364
rtoes 36.6835
lfemur -34.8938 -5.75316 -23.3873
ltibia 31.8287
lfoot -22.3832 10.7309
ltoes -21.8013
618
root 2.79329 16.9014 22.478 -148.385 27.0259 -180.366
lowerback -17.6422 -1.08534 -1.98745
upperback -14.919 1.48156 0.177955
thorax -6.30423 2.10136 1.34719
lowerneck -11.1963 -7.3244 -9.11797
upperneck 34.5352 -8.10646 6.01216
head 14.4073 -2.98338 3.00695
rclavicle -3.92926e-014 -5.91384e-015
rhumerus -51.7716 15.2401 -86.562
rradius 47.0258
rwrist 4.28372
rhand -13.9075 -14.6602
rfingers 7.12502
rthumb 12.2183 -44.2834
lclavicle -3.92926e-014 -5.91384e-015
lhumerus -63.2624 -27.3195 110.339
lradius 56.8892
lwrist 16.4222
lhand 16.8986 33.0677
lfingers 7.12502
lthumb 41.6357 57.7786
rfemur -53.372 -3.73265 34.9003
rtibia 29.6519
rfoot -36.0728 -41.9955
rtoes 36.9552
lfemur -35.069 -6.09089 -23.3551
ltibia 31.52
lfoot -22.1904 11.0457
ltoes -21.2945
619
root 2.74836 16.8999 22.5215 -148.376 27.134 -180.373
lowerback -17.5887 -1.01267 -1.95014
upperback -14.9195 1.56501 0.0905025
thorax -6.33225 2.13328 1.24089
lowerneck -11.0471 -7.5143 -9.44163
upperneck 34.1566 -8.46415 6.30788
head 14.2744 -3.16742 3.11199
rclavicle -1.09735e-014 -1.963e-014
rhumerus -51.7728 15.6732 -86.8067
rradius 47.7152
rwrist 4.14596
rhand -13.846 -14.8948
rfingers 7.12502
rthumb 12.2776 -44.5144
lclavicle -1.09735e-014 -1.963e-014
lhumerus -63.2773 -27.4222 110.29
lradius 56.934
lwrist 16.0681
lhand 17.0484 32.8891
lfingers 7.12502
lthumb 41.7761 57.5537
rfemur -53.4939 -3.41473 34.6062
rtibia 29.4797
rfoot -36.1571 -42.1194
rtoes 37.2758
lfemur -35.1252 -6.18219 -23.4404
ltibia 31.2336
lfoot -22.1656 11.2358
ltoes -20.736
620
root 2.70354 16.9002 22.5657 -148.315 27.2564 -180.341
lowerback -17.5809 -0.964835 -1.89766
upperback -14.9003 1.6115 0.0433983
thorax -6.31329 2.14524 1.16749
lowerneck -11.0396 -7.68672 -9.70383
upperneck 33.8222 -8.78232 6.53155
head 14.1847 -3.33567 3.18024
rclavicle -5.57218e-014 -2.68856e-014
rhumerus -51.7591 16.2383 -87.0894
rradius 48.5155
rwrist 3.99169
rhand -13.7888 -15.0843
rfingers 7.12502
rthumb 12.3328 -44.7005
lclavicle -5.57218e-014 -2.68856e-014
lhumerus -63.2186 -27.5129 110.199
lradius 56.9819
lwrist 15.7787
lhand 17.0951 32.742
lfingers 7.12502
lthumb 41.8199 57.392
rfemur -53.6351 -3.10048 34.3734
rtibia 29.2656
rfoot -36.0614 -42.2959
rtoes 37.4724
lfemur -35.2665 -6.27042 -23.4654
ltibia 30.9586
lfoot -22.12 11.362
ltoes -20.1306
